<?xml version="1.0" standalone="no"?>
<!DOCTYPE svg PUBLIC "-//W3C//DTD SVG 20010904//EN"
 "http://www.w3.org/TR/2001/REC-SVG-20010904/DTD/svg10.dtd">
<svg version="1.0" xmlns="http://www.w3.org/2000/svg"
 width="700.000000pt" height="700.000000pt" viewBox="0 0 700.000000 700.000000"
 preserveAspectRatio="xMidYMid meet">
<metadata>
Created by potrace 1.14, written by Peter Selinger 2001-2017
</metadata>
<g transform="translate(0.000000,700.000000) scale(0.100000,-0.100000)"
fill="#000000" stroke="none">
<path d="M2495 5723 c-138 -24 -258 -70 -316 -121 -44 -38 -84 -110 -104 -188
-12 -46 -59 -245 -120 -504 -2 -8 -18 -76 -35 -150 -29 -128 -39 -171 -95
-405 -13 -55 -47 -198 -75 -318 -29 -120 -50 -232 -48 -248 3 -22 1 -28 -9
-25 -30 12 -156 -61 -205 -119 -51 -59 -60 -165 -18 -218 24 -30 85 -60 120
-59 l26 1 -32 -93 c-35 -99 -70 -230 -134 -501 -44 -180 -188 -796 -196 -830
-2 -11 -11 -53 -20 -93 -29 -129 -7 -193 76 -229 46 -20 193 -24 247 -8 24 7
43 12 43 10 0 -6 130 40 197 70 68 30 69 32 78 120 7 66 11 95 18 140 8 44 17
105 22 145 3 19 7 46 10 60 3 14 14 81 25 150 22 134 27 161 35 200 2 14 7 37
9 53 11 60 28 156 41 227 8 41 17 89 20 105 39 229 98 515 109 533 9 14 127
-13 192 -45 207 -101 401 -398 458 -703 13 -70 15 -266 3 -345 -3 -16 -8 -57
-12 -90 -3 -33 -8 -71 -10 -85 -2 -14 -7 -45 -10 -70 -3 -25 -8 -52 -10 -60
-2 -8 -7 -29 -10 -47 -3 -17 -14 -70 -25 -118 -12 -47 -19 -89 -16 -93 5 -8
89 -51 150 -78 55 -23 149 -29 237 -13 41 7 76 13 79 13 3 1 30 12 61 26 l57
25 6 75 c4 41 9 89 11 105 28 203 49 342 60 395 7 36 16 83 19 105 8 50 14 81
20 103 3 9 7 34 10 54 5 33 13 70 32 153 3 11 7 31 10 45 2 14 16 75 30 135
14 61 27 117 29 125 2 8 15 65 30 125 32 132 38 161 38 198 0 15 5 26 11 24 6
-2 51 -19 100 -37 l89 -34 96 100 c212 220 259 335 175 420 -19 18 -48 41 -64
49 -38 20 -159 45 -216 45 -33 0 -44 4 -41 13 8 19 230 694 296 897 78 240
135 407 216 628 36 99 65 184 65 190 0 14 -171 33 -274 31 -223 -5 -342 -60
-402 -186 -46 -97 -65 -162 -197 -663 -36 -133 -178 -691 -183 -715 -9 -42
-40 -155 -45 -158 -2 -3 -85 -7 -184 -11 -99 -3 -189 -7 -200 -10 -20 -4 -108
-11 -250 -22 -44 -3 -91 -7 -105 -9 -14 -2 -63 -7 -110 -10 -47 -4 -89 -8 -95
-8 -13 -2 -13 -5 25 138 18 66 33 125 35 130 5 23 20 82 77 295 33 124 71 268
85 320 13 52 69 255 123 450 54 195 101 368 104 384 3 16 -1 44 -9 62 -11 26
-22 35 -55 44 -37 10 -124 11 -175 3z m495 -2229 c58 -3 115 -7 128 -7 27 -1
27 -7 2 -57 -11 -21 -30 -76 -44 -121 l-23 -82 -27 45 c-14 25 -58 85 -96 134
-70 90 -80 107 -57 99 6 -2 59 -7 117 -11z"/>
<path d="M5388 5012 c-15 -2 -39 -15 -54 -30 -20 -20 -695 -1182 -936 -1612
-17 -30 -69 -119 -115 -197 -45 -79 -83 -146 -83 -149 0 -3 -8 -18 -19 -32
-10 -15 -29 -47 -43 -72 -14 -25 -78 -137 -143 -250 -65 -113 -133 -230 -150
-261 -36 -62 -38 -104 -10 -160 62 -118 270 -211 369 -164 29 14 48 37 93 114
201 347 543 942 576 1001 16 30 38 66 47 80 9 14 34 57 56 95 21 39 45 82 54
96 8 15 46 80 83 145 37 66 72 126 78 134 11 17 209 362 247 430 14 25 47 83
75 130 27 47 64 110 80 140 17 30 38 67 49 82 10 14 18 28 18 30 0 3 20 40 45
84 50 88 54 115 25 178 -47 105 -224 202 -342 188z"/>
<path d="M903 4533 c-35 -18 -35 -18 -218 -238 -82 -99 -152 -182 -155 -185
-3 -3 -37 -43 -75 -90 -38 -47 -72 -87 -75 -90 -3 -3 -39 -45 -80 -95 -41 -49
-82 -99 -92 -110 -9 -11 -39 -47 -67 -80 -29 -34 -54 -74 -57 -93 -7 -36 10
-107 29 -127 7 -7 44 -47 82 -90 72 -81 90 -101 153 -170 21 -22 75 -83 122
-135 47 -52 87 -97 90 -100 3 -3 66 -72 140 -155 220 -246 221 -247 327 -219
106 27 190 93 241 187 40 75 29 119 -50 200 -29 30 -165 171 -303 312 -137
141 -251 261 -253 266 -5 13 18 41 182 219 44 48 128 141 206 229 36 40 79 88
95 106 125 135 135 150 135 193 0 19 -11 56 -24 82 -64 128 -262 230 -353 183z"/>
<path d="M6015 4518 c-129 -51 -238 -184 -218 -267 9 -40 25 -59 238 -291 33
-36 94 -103 135 -149 82 -92 154 -172 212 -235 21 -23 38 -45 38 -49 0 -5 -56
-65 -124 -135 -68 -70 -166 -170 -216 -222 -51 -52 -133 -138 -184 -190 -50
-52 -97 -106 -102 -120 -22 -52 7 -130 75 -204 48 -52 145 -101 221 -110 64
-8 104 23 278 217 89 100 174 196 190 212 15 17 65 73 112 125 47 52 104 115
126 140 128 140 177 198 189 226 14 32 14 91 -1 116 -7 12 -376 458 -414 500
-8 9 -91 109 -185 221 -93 113 -182 212 -197 221 -35 22 -110 19 -173 -6z"/>
</g>
</svg>
